<?xml version="1.0" standalone="no"?>
<!DOCTYPE svg PUBLIC "-//W3C//DTD SVG 20010904//EN"
 "http://www.w3.org/TR/2001/REC-SVG-20010904/DTD/svg10.dtd">
<svg version="1.0" xmlns="http://www.w3.org/2000/svg"
 width="1200.000000pt" height="1200.000000pt" viewBox="0 0 1200.000000 1200.000000"
 preserveAspectRatio="xMidYMid meet">
<metadata>
Created by potrace 1.14, written by Peter Selinger 2001-2017
</metadata>
<g transform="translate(0.000000,1200.000000) scale(0.100000,-0.100000)"
fill="#000000" stroke="none">
<path d="M1750 6000 l0 -1580 1770 0 1770 0 0 1580 0 1580 -1770 0 -1770 0 0
-1580z m2705 1449 c227 -27 385 -127 474 -298 70 -135 91 -249 91 -488 l0
-173 -210 0 -210 0 0 135 c0 326 -52 415 -240 415 -109 0 -157 -28 -206 -120
-18 -33 -19 -76 -19 -946 l0 -911 30 -48 c40 -63 68 -83 140 -96 115 -22 212
17 255 101 34 66 41 152 38 445 l-3 280 -110 5 -110 5 0 205 0 205 320 0 320
0 3 -515 c4 -547 0 -614 -43 -742 -67 -200 -191 -318 -400 -379 -69 -20 -101
-24 -230 -23 -165 0 -241 16 -353 71 -78 39 -179 142 -224 228 -89 172 -98
275 -98 1180 0 877 7 977 81 1135 85 184 236 290 459 325 109 17 136 17 245 4z
m-1965 -1194 c5 -1080 6 -1163 23 -1205 39 -97 97 -133 215 -132 77 0 88 3
126 29 22 16 52 49 66 73 l25 45 5 1175 c3 646 6 1176 8 1178 1 1 98 1 215 0
l212 -3 3 -1110 c3 -1156 1 -1234 -39 -1370 -64 -215 -224 -365 -440 -411 -97
-21 -291 -21 -387 0 -175 37 -325 149 -395 296 -44 92 -65 168 -77 285 -11
102 -14 2298 -3 2309 4 3 104 5 222 4 l216 -3 5 -1160z"/>
<path d="M5614 7056 c-3 -8 -4 -187 -2 -398 3 -340 5 -387 21 -423 38 -86 103
-125 207 -125 108 0 186 51 210 138 6 22 10 190 10 430 l0 393 -72 -3 -73 -3
-5 -391 c-5 -427 -5 -424 -64 -424 -75 1 -76 4 -76 439 l0 381 -75 0 c-57 0
-77 -4 -81 -14z"/>
<path d="M6160 6595 l0 -475 80 0 80 0 0 475 0 475 -80 0 -80 0 0 -475z"/>
<path d="M5789 5879 c-88 -13 -146 -62 -168 -144 -14 -51 -15 -626 -1 -676 16
-57 51 -102 100 -127 39 -20 56 -23 127 -20 101 5 148 32 184 105 22 45 24 62
27 246 l4 197 -111 0 -111 0 0 -70 0 -70 35 0 35 0 0 -115 c0 -103 -2 -117
-21 -136 -14 -14 -30 -19 -57 -17 -31 2 -40 9 -55 38 -16 32 -17 63 -15 321 3
266 4 288 22 308 25 27 79 28 106 1 16 -16 20 -33 20 -90 l0 -70 75 0 75 0 0
55 c0 117 -34 201 -97 237 -40 24 -115 36 -174 27z"/>
<path d="M9389 5879 c-87 -13 -148 -63 -169 -137 -14 -53 -13 -649 1 -693 32
-94 101 -138 214 -139 89 0 147 27 190 88 l30 44 3 328 c2 213 -1 343 -8 369
-28 103 -133 160 -261 140z m87 -147 c31 -20 34 -55 34 -340 0 -278 -1 -290
-21 -316 -26 -33 -77 -36 -105 -5 -18 19 -19 42 -22 298 -3 291 -1 331 24 356
16 16 71 20 90 7z"/>
<path d="M6150 5395 l0 -475 205 0 205 0 0 70 0 70 -130 0 -131 0 3 143 3 142
103 3 103 3 -3 67 -3 67 -102 3 -103 3 0 119 0 120 130 0 130 0 0 70 0 70
-205 0 -205 0 0 -475z"/>
<path d="M6640 5395 l0 -476 68 3 67 3 5 320 5 320 73 -285 c40 -157 78 -302
83 -322 l10 -38 79 0 80 0 0 475 0 475 -70 0 -70 0 -1 -267 0 -268 -64 245
c-35 135 -67 255 -70 268 -5 21 -10 22 -100 22 l-95 0 0 -475z"/>
<path d="M7220 5395 l0 -475 203 2 202 3 3 68 3 67 -131 0 -130 0 0 145 0 145
100 0 100 0 0 70 0 70 -100 0 -100 0 0 120 0 119 128 3 127 3 3 68 3 67 -206
0 -205 0 0 -475z"/>
<path d="M7710 5395 l0 -475 75 0 75 0 2 203 3 202 45 -3 c34 -2 51 -9 68 -28
21 -24 22 -34 22 -168 0 -79 3 -158 6 -175 l7 -31 79 0 c72 0 79 2 73 18 -4 9
-9 94 -12 187 -5 188 -19 245 -67 266 l-25 12 31 25 c46 39 58 78 58 188 0
118 -13 166 -56 204 -47 41 -91 50 -246 50 l-138 0 0 -475z m270 308 c19 -25
21 -38 18 -111 -3 -74 -6 -86 -27 -103 -15 -12 -39 -19 -67 -19 l-44 0 0 130
0 130 49 0 c42 0 53 -4 71 -27z"/>
<path d="M8291 5418 c-40 -249 -75 -463 -78 -476 -5 -23 -4 -23 68 -20 l74 3
12 79 c17 114 11 107 100 104 l78 -3 14 -92 13 -93 74 0 c68 0 74 2 74 20 0
20 -135 865 -145 908 -5 21 -10 22 -108 22 l-103 0 -73 -452z m176 -176 c-33
-2 -61 -1 -63 1 -4 3 40 332 52 397 6 27 14 -15 38 -180 l31 -215 -58 -3z"/>
<path d="M8690 5800 l0 -70 80 0 80 0 0 -405 0 -405 75 0 75 0 0 405 0 405 80
0 80 0 0 70 0 70 -235 0 -235 0 0 -70z"/>
<path d="M9760 5395 l0 -475 75 0 75 0 2 203 3 202 45 -3 c34 -2 51 -9 68 -28
21 -24 22 -34 22 -168 0 -79 3 -158 6 -175 l7 -31 79 0 c72 0 79 2 73 18 -4 9
-9 94 -12 187 -5 188 -19 245 -67 266 l-25 12 31 25 c46 39 58 78 58 188 0
118 -13 166 -56 204 -47 41 -91 50 -246 50 l-138 0 0 -475z m270 308 c19 -25
21 -38 18 -111 -3 -74 -6 -86 -27 -103 -15 -12 -39 -19 -67 -19 l-44 0 0 130
0 130 49 0 c42 0 53 -4 71 -27z"/>
</g>
</svg>
